<?xml version="1.0" ?><!DOCTYPE svg  PUBLIC '-//W3C//DTD SVG 1.1//EN'  'http://www.w3.org/Graphics/SVG/1.1/DTD/svg11.dtd'><svg height="512px" id="Untitled-P%E1gina%201" version="1.1" viewBox="0 0 512 512" width="512px" xml:space="preserve" xmlns="http://www.w3.org/2000/svg" xmlns:xlink="http://www.w3.org/1999/xlink"><g><g><path d="M 506 100.693 C 487.6226 108.8685 467.8492 114.3694 447.1135 116.8609 C 468.2788 104.1564 484.5364 84.0332 492.196 60.0481 C 472.3631 71.8146 450.4303 80.3427 427.038 84.9513 C 408.3623 64.9934 381.685 52.5 352.1523 52.5 C 295.5446 52.5 249.627 98.5122 249.627 155.2353 C 249.627 163.3093 250.5098 171.1423 252.2398 178.6288 C 167.0022 174.3607 91.4365 133.4709 40.822 71.2869 C 31.9932 86.5247 26.9028 104.1564 26.9028 122.9651 C 26.9028 158.5673 45.0257 190.0267 72.558 208.4929 C 55.7594 207.9672 39.9153 203.2909 26.0875 195.659 L 26.0875 196.9297 C 26.0875 246.728 61.4066 288.257 108.406 297.6775 C 99.7761 300.0953 90.6888 301.2943 81.347 301.2943 C 74.7691 301.2943 68.2629 300.6729 62.043 299.454 C 75.0992 340.274 113.0113 370.0048 157.8513 370.7736 C 122.7548 398.3535 78.5154 414.7643 30.4343 414.7643 C 22.1742 414.7643 13.9936 414.3142 6 413.3742 C 51.3848 442.4915 105.308 459.5 163.2559 459.5 C 351.9376 459.5 455.1151 302.9712 455.1151 167.185 C 455.1151 162.6999 455.0355 158.2526 454.8446 153.8711 C 474.8726 139.406 492.2835 121.2842 506 100.693 L 506 100.693 Z" fill="none" stroke="#35a8e0" stroke-width="12"/></g><g><path d="M 506 100.693 C 487.6226 108.8685 467.8492 114.3694 447.1135 116.8609 C 468.2788 104.1564 484.5364 84.0332 492.196 60.0481 C 472.3631 71.8146 450.4303 80.3427 427.038 84.9513 C 408.3623 64.9934 381.685 52.5 352.1523 52.5 C 295.5446 52.5 249.627 98.5122 249.627 155.2353 C 249.627 163.3093 250.5098 171.1423 252.2398 178.6288 C 167.0022 174.3607 91.4365 133.4709 40.822 71.2869 C 31.9932 86.5247 26.9028 104.1564 26.9028 122.9651 C 26.9028 158.5673 45.0257 190.0267 72.558 208.4929 C 55.7594 207.9672 39.9153 203.2909 26.0875 195.659 L 26.0875 196.9297 C 26.0875 246.728 61.4066 288.257 108.406 297.6775 C 99.7761 300.0953 90.6888 301.2943 81.347 301.2943 C 74.7691 301.2943 68.2629 300.6729 62.043 299.454 C 75.0992 340.274 113.0113 370.0048 157.8513 370.7736 C 122.7548 398.3535 78.5154 414.7643 30.4343 414.7643 C 22.1742 414.7643 13.9936 414.3142 6 413.3742 C 51.3848 442.4915 105.308 459.5 163.2559 459.5 C 351.9376 459.5 455.1151 302.9712 455.1151 167.185 C 455.1151 162.6999 455.0355 158.2526 454.8446 153.8711 C 474.8726 139.406 492.2835 121.2842 506 100.693 L 506 100.693 Z" fill="none" stroke="#35a8e0" stroke-width="12"/></g><path d="M 506 100.693 C 487.6226 108.8685 467.8492 114.3694 447.1135 116.8609 C 468.2788 104.1564 484.5364 84.0332 492.196 60.0481 C 472.3631 71.8146 450.4303 80.3427 427.038 84.9513 C 408.3623 64.9934 381.685 52.5 352.1523 52.5 C 295.5446 52.5 249.627 98.5122 249.627 155.2353 C 249.627 163.3093 250.5098 171.1423 252.2398 178.6288 C 167.0022 174.3607 91.4365 133.4709 40.822 71.2869 C 31.9932 86.5247 26.9028 104.1564 26.9028 122.9651 C 26.9028 158.5673 45.0257 190.0267 72.558 208.4929 C 55.7594 207.9672 39.9153 203.2909 26.0875 195.659 L 26.0875 196.9297 C 26.0875 246.728 61.4066 288.257 108.406 297.6775 C 99.7761 300.0953 90.6888 301.2943 81.347 301.2943 C 74.7691 301.2943 68.2629 300.6729 62.043 299.454 C 75.0992 340.274 113.0113 370.0048 157.8513 370.7736 C 122.7548 398.3535 78.5154 414.7643 30.4343 414.7643 C 22.1742 414.7643 13.9936 414.3142 6 413.3742 C 51.3848 442.4915 105.308 459.5 163.2559 459.5 C 351.9376 459.5 455.1151 302.9712 455.1151 167.185 C 455.1151 162.6999 455.0355 158.2526 454.8446 153.8711 C 474.8726 139.406 492.2835 121.2842 506 100.693 L 506 100.693 Z"/></g></svg>